<?xml version="1.0" encoding="UTF-8"?>
<svg width="300" height="450" version="1.1" viewBox="0 0 300 450" xmlns="http://www.w3.org/2000/svg">
 <rect width="300" height="450" fill="#1a1a1a"/>
 <g transform="matrix(1.3 0 0 1.3 -45 -58.5)">
  <path d="m150 196.5c-19.33 0-35 15.67-35 35s15.67 35 35 35 35-15.67 35-35-15.67-35-35-35zm0 10c13.807 0 25 11.193 25 25s-11.193 25-25 25-25-11.193-25-25 11.193-25 25-25z" fill="#666"/>
  <path d="m150 146.5c-46.392 0-84 37.608-84 84 0 46.392 37.608 84 84 84 46.392 0 84-37.608 84-84 0-46.392-37.608-84-84-84zm0 10c40.869 0 74 33.131 74 74s-33.131 74-74 74-74-33.131-74-74 33.131-74 74-74z" fill="#666"/>
 </g>
 <text x="150" y="350" dominant-baseline="middle" fill="#666" font-family="Arial" font-size="24px" text-anchor="middle">No Image Available</text>
</svg> 